# Blender 4.5.4 LTS
# www.blender.org
o Branch01
v 0.000000 -0.062829 -0.100000 0.0039 0.0039 0.0039
v 0.004401 0.060066 -0.099425 0.0078 0.0078 0.0078
v 0.070711 -0.062829 -0.070711 0.0000 0.0000 0.0000
v 0.072461 0.060066 -0.071233 0.0000 0.0000 0.0000
v 0.100000 -0.062829 0.000000 0.0000 0.0000 0.0000
v 0.100653 0.060066 -0.003173 0.0000 0.0000 0.0000
v 0.070711 -0.062829 0.070711 0.0000 0.0000 0.0000
v 0.072461 0.060066 0.064888 0.0000 0.0000 0.0000
v 0.000000 -0.062829 0.100000 0.0000 0.0000 0.0000
v 0.004401 0.060066 0.093080 0.0000 0.0000 0.0000
v -0.070710 -0.062829 0.070711 0.0000 0.0000 0.0000
v -0.063660 0.060066 0.064888 0.0000 0.0000 0.0000
v -0.100000 -0.062829 0.000000 0.0000 0.0000 0.0000
v -0.091852 0.060066 -0.003173 0.0039 0.0039 0.0039
v -0.070710 -0.062829 -0.070711 0.0039 0.0039 0.0039
v -0.063660 0.060066 -0.071233 0.0078 0.0078 0.0078
v 0.096068 0.160195 -0.063958 0.0706 0.0118 0.0118
v 0.036280 0.179365 -0.092700 0.1961 0.0078 0.0078
v 0.118825 0.152965 0.000350 0.0078 0.0078 0.0078
v 0.091221 0.161909 0.062552 0.0078 0.0078 0.0078
v 0.029426 0.181788 0.086212 0.0118 0.0118 0.0118
v -0.030362 0.200958 0.057470 0.0471 0.0078 0.0078
v -0.053119 0.208189 -0.006837 0.1490 0.0118 0.0118
v -0.025515 0.199244 -0.069040 0.2784 0.0078 0.0078
v 0.136132 0.297991 -0.057734 0.2980 0.0000 0.0000
v 0.079103 0.312018 -0.084372 0.2980 0.0000 0.0000
v 0.157963 0.292346 0.002272 0.2980 0.0000 0.0000
v 0.131808 0.298391 0.060495 0.2980 0.0000 0.0000
v 0.072988 0.312584 0.082829 0.2980 0.0000 0.0000
v 0.015958 0.326611 0.056191 0.2980 0.0000 0.0000
v -0.005873 0.332255 -0.003815 0.2980 0.0000 0.0000
v 0.020282 0.326210 -0.062038 0.2980 0.0000 0.0000
v 0.143530 0.440036 -0.048525 0.2980 0.0000 0.0000
v 0.089929 0.434744 -0.072478 0.2980 0.0000 0.0000
v 0.164642 0.440517 0.006406 0.3019 0.0039 0.0039
v 0.140900 0.435904 0.060137 0.2980 0.0000 0.0000
v 0.086211 0.428901 0.081193 0.2980 0.0000 0.0000
v 0.032611 0.423608 0.057240 0.2980 0.0000 0.0000
v 0.011498 0.423127 0.002309 0.2980 0.0000 0.0000
v 0.035240 0.427740 -0.051422 0.2980 0.0000 0.0000
v 0.134532 0.554820 -0.038933 0.3216 0.0078 0.0078
v 0.084803 0.553373 -0.061184 0.3098 0.0196 0.0196
v 0.153989 0.554061 0.011961 0.4235 0.0039 0.0039
v 0.131778 0.551542 0.061686 0.3019 0.0000 0.0000
v 0.080908 0.548737 0.081113 0.2980 0.0000 0.0000
v 0.031179 0.547290 0.058862 0.2980 0.0000 0.0000
v 0.011721 0.548049 0.007968 0.3019 0.0039 0.0039
v 0.033933 0.550569 -0.041757 0.3059 0.0157 0.0157
v 0.124430 0.692692 -0.026897 0.4980 0.0000 0.0000
v 0.068240 0.659452 -0.045327 0.4980 0.0000 0.0000
v 0.143704 0.642044 0.017826 0.4980 0.0000 0.0000
v 0.122223 0.685584 0.062291 0.4980 0.0000 0.0000
v 0.067913 0.649344 0.082299 0.4980 0.0000 0.0000
v 0.023776 0.636089 0.063019 0.4823 0.0000 0.0000
v 0.005590 0.633559 0.017652 0.4980 0.0000 0.0000
v 0.024007 0.643236 -0.027226 0.4980 0.0000 0.0000
v 0.099184 0.769476 -0.023558 0.4980 0.0000 0.0000
v 0.033070 0.753523 -0.039947 0.4980 0.0000 0.0000
v 0.088240 0.803535 0.025929 0.4980 0.0000 0.0000
v 0.101100 0.757685 0.066216 0.4980 0.0000 0.0000
v 0.034129 0.740588 0.087570 0.4980 0.0000 0.0000
v -0.007753 0.715398 0.068120 0.4980 0.0000 0.0000
v -0.025412 0.708752 0.022715 0.4980 0.0000 0.0000
v -0.008502 0.724544 -0.022048 0.4980 0.0000 0.0000
v 0.057158 0.867527 -0.008780 0.4980 0.0000 0.0000
v 0.019818 0.848577 -0.026862 0.4980 0.0000 0.0000
v 0.072710 0.871305 0.032051 0.4980 0.0000 0.0000
v 0.057365 0.857697 0.071712 0.4980 0.0000 0.0000
v 0.020111 0.834676 0.086970 0.5019 0.0078 0.0078
v -0.017229 0.815727 0.068888 0.4980 0.0000 0.0000
v -0.032782 0.811949 0.028057 0.4980 0.0000 0.0000
v -0.017436 0.825556 -0.011604 0.4980 0.0000 0.0000
v 0.029753 0.954721 0.012630 0.6980 0.0000 0.0000
v -0.002843 0.943449 -0.003261 0.6980 0.0000 0.0000
v 0.043246 0.955313 0.047856 0.6980 0.0000 0.0000
v 0.029731 0.944879 0.081781 0.6980 0.0000 0.0000
v -0.002874 0.929529 0.094533 0.6941 0.0000 0.0000
v -0.035471 0.918256 0.078641 0.6980 0.0000 0.0000
v -0.048964 0.917664 0.043415 0.6941 0.0000 0.0000
v -0.035449 0.928099 0.009490 0.6941 0.0000 0.0000
v 0.011920 1.048250 0.027194 0.6980 0.0000 0.0000
v -0.017879 1.039215 0.012934 0.6980 0.0000 0.0000
v 0.023871 1.048041 0.058799 0.6980 0.0000 0.0000
v 0.010973 1.038710 0.089235 0.6980 0.0000 0.0000
v -0.019218 1.025723 0.100674 0.6980 0.0000 0.0000
v -0.049017 1.016687 0.086414 0.6980 0.0000 0.0000
v -0.060968 1.016897 0.054809 0.6980 0.0000 0.0000
v -0.048070 1.026228 0.024373 0.6980 0.0000 0.0000
v -0.012461 1.153177 0.039341 0.7098 0.0000 0.0000
v -0.036068 1.128811 0.026610 0.6980 0.0000 0.0000
v -0.001787 1.157350 0.067299 0.6902 0.0000 0.0000
v -0.010298 1.138886 0.094107 0.6941 0.0000 0.0000
v -0.033009 1.108601 0.104061 0.6941 0.0000 0.0000
v -0.056617 1.084235 0.091330 0.6941 0.0000 0.0000
v -0.067291 1.080062 0.063372 0.6980 0.0000 0.0000
v -0.058779 1.098526 0.036564 0.6980 0.0000 0.0000
v 0.162396 0.738101 -0.015230 0.4980 0.0000 0.0000
v 0.182696 0.707963 0.016146 0.4980 0.0000 0.0000
v 0.165070 0.728735 0.048932 0.4980 0.0000 0.0000
v 0.115359 0.817130 0.028297 0.4980 0.0000 0.0000
v 0.123295 0.798672 -0.009873 0.4980 0.0000 0.0000
v 0.130831 0.786839 0.054700 0.4980 0.0000 0.0000
v 0.210044 0.778916 0.017967 0.4980 0.0000 0.0000
v 0.186485 0.800311 -0.008692 0.4980 0.0000 0.0000
v 0.193754 0.792444 0.048390 0.4980 0.0000 0.0000
v 0.137228 0.859163 0.033412 0.4980 0.0000 0.0000
v 0.144498 0.844168 -0.001263 0.4980 0.0000 0.0000
v 0.156344 0.835763 0.055897 0.4980 0.0000 0.0000
v 0.220866 0.852052 0.020512 0.6902 0.0000 0.0000
v 0.200663 0.864764 0.001499 0.6902 0.0000 0.0000
v 0.208915 0.859639 0.044031 0.6510 0.0000 0.0000
v 0.161037 0.905253 0.035244 0.6941 0.0000 0.0000
v 0.166313 0.893075 0.008875 0.6276 0.0000 0.0000
v 0.177982 0.889021 0.051287 0.6863 0.0000 0.0000
v 0.216276 0.908604 0.024913 0.6980 0.0000 0.0000
v 0.202544 0.928157 0.010072 0.6980 0.0000 0.0000
v 0.207120 0.920790 0.042149 0.6980 0.0000 0.0000
v 0.174271 0.983004 0.034117 0.6980 0.0000 0.0000
v 0.178348 0.968648 0.014547 0.6980 0.0000 0.0000
v 0.185506 0.961104 0.046637 0.6980 0.0000 0.0000
v 0.219486 0.985575 0.026808 0.6980 0.0000 0.0000
v 0.208613 0.997731 0.016672 0.6980 0.0000 0.0000
v 0.213112 0.992811 0.039408 0.6980 0.0000 0.0000
v 0.187364 1.037082 0.034791 0.6980 0.0000 0.0000
v 0.190175 1.025069 0.020677 0.6980 0.0000 0.0000
v 0.196498 1.021318 0.043342 0.6980 0.0000 0.0000
v 0.224161 1.011757 0.028572 0.6980 0.0000 0.0000
v 0.215584 1.037309 0.017587 0.6980 0.0000 0.0000
v 0.217650 1.028519 0.040610 0.6980 0.0000 0.0000
v 0.196904 1.105472 0.033933 0.6980 0.0000 0.0000
v 0.199823 1.088935 0.020085 0.6980 0.0000 0.0000
v 0.203704 1.078742 0.043192 0.6980 0.0000 0.0000
v 0.236648 1.069719 0.028466 0.9725 0.0000 0.0000
v 0.228036 1.089041 0.019208 0.9882 0.0000 0.0000
v 0.230931 1.081740 0.039240 0.9255 0.0000 0.0000
v 0.210336 1.143390 0.034254 0.9960 0.0000 0.0000
v 0.212881 1.129112 0.022026 0.9764 0.0000 0.0000
v 0.217389 1.121680 0.042064 0.9921 0.0000 0.0000
v 0.239517 1.108380 0.029279 0.9960 0.0000 0.0000
v 0.232687 1.136852 0.019503 1.0000 0.0000 0.0000
v 0.233900 1.127629 0.039676 0.9960 0.0000 0.0000
v 0.217260 1.211845 0.033424 1.0000 0.0000 0.0000
v 0.219786 1.194118 0.021375 1.0000 0.0000 0.0000
v 0.222554 1.182831 0.041655 1.0000 0.0000 0.0000
v 0.247822 1.159909 0.029526 1.0000 0.0000 0.0000
v 0.242435 1.188381 0.021817 1.0000 0.0000 0.0000
v 0.243392 1.179158 0.037725 1.0000 0.0000 0.0000
v 0.230269 1.263375 0.032795 1.0000 0.0000 0.0000
v 0.232261 1.245648 0.023293 1.0000 0.0000 0.0000
v 0.234444 1.234360 0.039286 1.0000 0.0000 0.0000
v 0.254254 1.241066 0.027770 1.0000 0.0000 0.0000
v 0.246628 1.254422 0.020974 1.0000 0.0000 0.0000
v 0.250156 1.249879 0.036568 1.0000 0.0000 0.0000
v 0.232570 1.297895 0.033811 1.0000 0.0000 0.0000
v 0.234158 1.284789 0.024048 1.0000 0.0000 0.0000
v 0.238947 1.281127 0.039556 1.0000 0.0000 0.0000
v 0.255096 1.324010 0.025847 1.0000 0.0000 0.0000
v 0.246355 1.316512 0.020279 1.0000 0.0000 0.0000
v 0.252092 1.323262 0.035181 1.0000 0.0000 0.0000
v 0.232732 1.323656 0.035214 1.0000 0.0000 0.0000
v 0.233579 1.314121 0.025256 1.0000 0.0000 0.0000
v 0.240397 1.324782 0.039900 1.0000 0.0000 0.0000
v -0.024767 1.207370 0.054343 0.9764 0.0000 0.0000
v -0.045314 1.198417 0.042660 0.9921 0.0000 0.0000
v -0.017342 1.206039 0.077568 0.9333 0.0000 0.0000
v -0.027391 1.195203 0.098729 0.8353 0.0000 0.0000
v -0.049025 1.181210 0.105432 0.9882 0.0000 0.0000
v -0.069573 1.172256 0.093749 0.9882 0.0000 0.0000
v -0.076997 1.173587 0.070524 0.9921 0.0000 0.0000
v -0.066948 1.184423 0.049362 0.9960 0.0000 0.0000
v -0.032762 1.256634 0.063067 1.0000 0.0000 0.0000
v -0.050919 1.258764 0.052780 1.0000 0.0000 0.0000
v -0.027111 1.252913 0.082911 0.9960 0.0000 0.0000
v -0.037279 1.249781 0.100687 1.0000 0.0000 0.0000
v -0.057307 1.249073 0.105983 1.0000 0.0000 0.0000
v -0.075465 1.251203 0.095697 1.0000 0.0000 0.0000
v -0.081115 1.254924 0.075853 1.0000 0.0000 0.0000
v -0.070948 1.258056 0.058076 1.0000 0.0000 0.0000
v -0.048594 1.329386 0.071318 1.0000 0.0000 0.0000
v -0.062158 1.325109 0.063613 1.0000 0.0000 0.0000
v -0.043824 1.327460 0.086482 1.0000 0.0000 0.0000
v -0.050643 1.320462 0.100222 1.0000 0.0000 0.0000
v -0.065055 1.312490 0.104490 1.0000 0.0000 0.0000
v -0.078619 1.308214 0.096785 1.0000 0.0000 0.0000
v -0.083388 1.310139 0.081621 1.0000 0.0000 0.0000
v -0.076570 1.317137 0.067881 1.0000 0.0000 0.0000
v -0.068514 1.404710 0.079821 1.0000 0.0000 0.0000
v -0.076333 1.393038 0.075002 1.0000 0.0000 0.0000
v -0.065055 1.405955 0.089630 1.0000 0.0000 0.0000
v -0.067982 1.396044 0.098683 1.0000 0.0000 0.0000
v -0.075581 1.380784 0.101677 1.0000 0.0000 0.0000
v -0.083400 1.369112 0.096858 1.0000 0.0000 0.0000
v -0.086859 1.367867 0.087049 1.0000 0.0000 0.0000
v -0.083932 1.377778 0.077996 1.0000 0.0000 0.0000
v -0.072343 1.437368 0.082788 1.0000 0.0000 0.0000
v -0.080960 1.431862 0.077818 1.0000 0.0000 0.0000
v -0.069094 1.436803 0.092681 1.0000 0.0000 0.0000
v -0.073117 1.430498 0.101700 1.0000 0.0000 0.0000
v -0.082054 1.422147 0.104564 1.0000 0.0000 0.0000
v -0.090672 1.416642 0.099593 1.0000 0.0000 0.0000
v -0.093920 1.417207 0.089701 1.0000 0.0000 0.0000
v -0.089898 1.423512 0.080681 1.0000 0.0000 0.0000
vn 0.3827 -0.0094 -0.9238
vn 0.9238 -0.0148 -0.3826
vn 0.9239 0.0050 0.3827
vn 0.3824 0.0383 0.9232
vn -0.3819 0.0656 0.9219
vn -0.9216 0.0710 0.3817
vn -0.3861 0.1354 0.9125
vn -0.9227 0.0513 -0.3822
vn -0.3826 0.0180 -0.9237
vn -0.0000 -1.0000 -0.0000
vn 0.9035 -0.2479 -0.3497
vn -0.3510 0.1271 -0.9277
vn 0.4010 -0.0430 -0.9150
vn 0.9010 -0.1733 0.3978
vn -0.9019 0.2386 0.3602
vn 0.3662 -0.0334 0.9299
vn -0.8874 0.2354 -0.3963
vn 0.9151 -0.1778 -0.3619
vn -0.3465 0.1331 -0.9286
vn -0.8459 0.3303 -0.4187
vn -0.3877 0.1524 0.9091
vn 0.8717 -0.2517 0.4205
vn 0.4093 -0.0765 -0.9092
vn -0.3114 0.1616 -0.9364
vn -0.8784 0.3267 0.3489
vn 0.3337 -0.0860 0.9388
vn 0.9102 0.0659 0.4089
vn -0.9233 0.1538 0.3519
vn 0.3556 -0.0239 0.9343
vn 0.9359 -0.0293 -0.3510
vn -0.8966 0.1856 -0.4020
vn -0.4112 0.0601 0.9096
vn 0.9117 -0.0557 0.4071
vn 0.4183 0.0435 -0.9073
vn -0.9171 -0.0286 -0.3976
vn 0.4002 0.1057 -0.9103
vn -0.3629 0.0710 -0.9291
vn -0.9336 -0.0150 0.3579
vn 0.3567 0.0160 0.9341
vn 0.9288 0.1035 -0.3558
vn -0.9142 0.0210 -0.4046
vn -0.4072 -0.0170 0.9132
vn 0.3033 0.0484 0.9517
vn -0.3947 -0.0683 0.9163
vn 0.9162 0.0704 0.3944
vn 0.3141 0.1417 -0.9387
vn -0.3811 0.0899 -0.9202
vn -0.9259 -0.1008 0.3640
vn 0.3426 0.0258 0.9391
vn 0.9404 0.1104 -0.3216
vn -0.4209 0.0610 -0.9050
vn 0.6135 -0.3611 -0.7023
vn -0.8484 -0.3165 -0.4243
vn -0.3339 -0.1841 0.9244
vn 0.1046 -0.0561 0.9929
vn 0.2235 0.1283 -0.9662
vn -0.3501 -0.0789 -0.9334
vn -0.8511 -0.3690 0.3734
vn -0.3752 -0.1585 0.9133
vn -0.9260 -0.0877 0.3672
vn 0.3074 0.0675 0.9492
vn 0.9197 0.3433 -0.1907
vn -0.9278 -0.0454 -0.3703
vn -0.4049 -0.0497 0.9130
vn 0.9169 0.3061 0.2562
vn 0.2457 0.2070 -0.9470
vn -0.9166 -0.0618 -0.3951
vn 0.8783 0.2295 0.4195
vn 0.3053 0.3068 -0.9015
vn -0.4239 0.1160 -0.8983
vn -0.9126 -0.1942 0.3597
vn 0.3665 0.0118 0.9303
vn 0.8633 0.3630 -0.3506
vn -0.9182 -0.0830 -0.3873
vn -0.9232 -0.1354 0.3597
vn -0.3980 -0.1261 0.9087
vn 0.8994 0.1431 0.4130
vn 0.3687 0.2111 -0.9052
vn -0.3933 0.0905 -0.9149
vn -0.9232 -0.1535 0.3524
vn 0.3596 -0.0003 0.9331
vn 0.9092 0.2292 -0.3475
vn 0.8869 0.3216 -0.3315
vn 0.3563 0.0261 0.9340
vn 0.9008 0.2449 -0.3585
vn -0.9253 -0.0589 -0.3747
vn -0.3946 -0.1065 0.9126
vn 0.8920 0.1732 0.4177
vn 0.3415 0.1967 -0.9191
vn -0.4220 0.0691 -0.9039
vn -0.4400 0.7254 -0.5294
vn 0.2054 0.1574 -0.9659
vn 0.2807 0.0480 0.9586
vn 0.6453 -0.3939 0.6546
vn -0.2995 0.5631 0.7702
vn -0.0185 0.1822 -0.9831
vn -0.8060 0.4558 -0.3776
vn 0.6763 -0.2171 -0.7039
vn 0.0151 0.1330 -0.9910
vn -0.6195 0.2716 0.7365
vn 0.7524 -0.3185 0.5766
vn 0.2632 0.0359 0.9641
vn -0.5468 0.2722 0.7918
vn 0.8503 -0.1509 0.5042
vn 0.2175 0.0062 0.9760
vn -0.8206 0.4401 -0.3645
vn 0.6977 -0.0607 -0.7138
vn -0.0309 0.1048 -0.9940
vn -0.9438 0.1640 -0.2869
vn 0.7444 0.0884 -0.6619
vn -0.0727 0.1089 -0.9914
vn -0.6250 0.1163 0.7719
vn 0.8949 0.0390 0.4445
vn 0.1376 -0.0285 0.9901
vn -0.5753 0.1397 0.8059
vn 0.8719 -0.0511 0.4871
vn 0.2386 0.0137 0.9710
vn -0.9043 0.2262 -0.3620
vn 0.7098 -0.0041 -0.7044
vn -0.4757 0.1682 0.8634
vn -0.9358 0.1322 -0.3267
vn 0.6528 -0.0849 -0.7528
vn -0.1322 0.0243 -0.9909
vn -0.6265 0.0896 0.7743
vn 0.8100 -0.1478 0.5675
vn -0.9424 0.0941 -0.3209
vn 0.7641 -0.1688 0.6226
vn 0.1452 -0.0150 0.9893
vn -0.8092 0.2893 -0.5114
vn 0.6011 -0.1258 -0.7892
vn -0.0312 0.0474 -0.9984
vn 0.7498 -0.1187 0.6509
vn 0.7070 -0.0524 -0.7053
vn -0.1303 0.0102 -0.9914
vn -0.6717 0.0697 0.7375
vn 0.8360 -0.0658 0.5447
vn 0.1472 -0.0114 0.9890
vn 0.6503 -0.0603 -0.7573
vn 0.1858 0.0026 0.9826
vn -0.8273 0.2111 -0.5206
vn 0.6455 -0.0942 -0.7579
vn 0.0283 0.0349 -0.9990
vn -0.4804 0.1412 0.8656
vn 0.3179 -0.0007 0.9481
vn -0.1645 0.0087 -0.9863
vn -0.6687 0.0442 0.7422
vn 0.8462 -0.0634 0.5292
vn 0.1798 -0.0098 0.9836
vn -0.9591 0.0613 -0.2763
vn -0.2015 0.8778 -0.4346
vn -0.9927 -0.0018 -0.1204
vn 0.5988 -0.0168 -0.8007
vn -0.3013 0.0025 -0.9535
vn -0.6007 -0.0062 0.7994
vn 0.9298 -0.0087 0.3681
vn -0.8868 -0.0046 -0.4621
vn -0.9211 -0.0488 -0.3862
vn -0.4241 -0.0977 0.9003
vn 0.8647 0.2038 0.4590
vn 0.2937 0.2803 -0.9139
vn -0.4474 0.1144 -0.8870
vn -0.9319 -0.1341 0.3370
vn 0.3182 0.0377 0.9473
vn 0.2545 0.0542 0.9656
vn -0.4845 -0.0616 0.8726
vn 0.8598 0.1311 0.4934
vn 0.4555 0.2054 -0.8662
vn -0.3108 0.1104 -0.9440
vn -0.9567 -0.0725 0.2819
vn 0.2701 0.0203 0.9626
vn 0.9417 0.2122 -0.2610
vn -0.3938 0.0871 -0.9151
vn 0.9427 0.2279 -0.2438
vn -0.8808 0.0037 -0.4735
vn -0.4908 -0.0415 0.8703
vn 0.8453 0.1642 0.5084
vn 0.4717 0.2093 -0.8566
vn -0.2930 0.1168 -0.9490
vn -0.9593 -0.0632 0.2753
vn -0.4117 -0.1208 0.9033
vn -0.9474 -0.0803 0.3100
vn 0.2395 0.0757 0.9679
vn 0.9172 0.2677 -0.2950
vn -0.9110 -0.0294 -0.4113
vn -0.4833 -0.0387 0.8746
vn 0.8363 0.2040 0.5089
vn 0.3702 0.2136 -0.9041
vn -0.6186 0.7463 0.2458
vn 0.9011 0.0871 0.4247
vn 0.4109 0.1217 -0.9035
vn -0.3546 0.0164 -0.9349
vn -0.9334 -0.1561 0.3232
vn 0.3567 -0.0181 0.9340
vn 0.9349 0.1465 -0.3234
vn -0.8960 -0.0985 -0.4329
vt 1.000000 0.500000
vt 1.000000 1.000000
vt 0.875000 1.000000
vt 0.875000 0.500000
vt 0.750000 1.000000
vt 0.750000 0.500000
vt 0.625000 1.000000
vt 0.625000 0.500000
vt 0.500000 1.000000
vt 0.500000 0.500000
vt 0.375000 1.000000
vt 0.375000 0.500000
vt 0.250000 1.000000
vt 0.250000 0.500000
vt 0.125000 1.000000
vt 0.125000 0.500000
vt 0.000000 1.000000
vt 0.000000 0.500000
vt 0.750000 0.490000
vt 0.919706 0.419706
vt 0.990000 0.250000
vt 0.919706 0.080294
vt 0.750000 0.010000
vt 0.580294 0.080294
vt 0.510000 0.250000
vt 0.580294 0.419706
vt 0.419706 0.419706
vt 0.250000 0.490000
vt 0.080294 0.419706
vt 0.010000 0.250000
vt 0.080294 0.080294
vt 0.250000 0.010000
vt 0.419706 0.080294
vt 0.490000 0.250000
s 0
f 1/1/1 2/2/1 4/3/1 3/4/1
f 3/4/2 4/3/2 6/5/2 5/6/2
f 5/6/3 6/5/3 8/7/3 7/8/3
f 7/8/4 8/7/4 10/9/4 9/10/4
f 9/10/5 10/9/5 12/11/5 11/12/5
f 11/12/6 12/11/6 14/13/6 13/14/6
f 12/11/7 10/9/7 21/9/7 22/11/7
f 13/14/8 14/13/8 16/15/8 15/16/8
f 15/16/9 16/15/9 2/17/9 1/18/9
f 1/19/10 3/20/10 5/21/10 7/22/10 9/23/10 11/24/10 13/25/10 15/26/10
f 19/5/11 17/3/11 25/3/11 27/5/11
f 2/17/12 16/15/12 24/15/12 18/17/12
f 4/3/13 2/2/13 18/2/13 17/3/13
f 8/7/14 6/5/14 19/5/14 20/7/14
f 14/13/15 12/11/15 22/11/15 23/13/15
f 10/9/16 8/7/16 20/7/16 21/9/16
f 16/15/17 14/13/17 23/13/17 24/15/17
f 6/5/18 4/3/18 17/3/18 19/5/18
f 26/17/19 32/15/19 40/15/19 34/17/19
f 24/15/20 23/13/20 31/13/20 32/15/20
f 22/11/21 21/9/21 29/9/21 30/11/21
f 20/7/22 19/5/22 27/5/22 28/7/22
f 17/3/23 18/2/23 26/2/23 25/3/23
f 18/17/24 24/15/24 32/15/24 26/17/24
f 23/13/25 22/11/25 30/11/25 31/13/25
f 21/9/26 20/7/26 28/7/26 29/9/26
f 36/7/27 35/5/27 43/5/27 44/7/27
f 31/13/28 30/11/28 38/11/28 39/13/28
f 29/9/29 28/7/29 36/7/29 37/9/29
f 27/5/30 25/3/30 33/3/30 35/5/30
f 32/15/31 31/13/31 39/13/31 40/15/31
f 30/11/32 29/9/32 37/9/32 38/11/32
f 28/7/33 27/5/33 35/5/33 36/7/33
f 25/3/34 26/2/34 34/2/34 33/3/34
f 48/15/35 47/13/35 55/13/35 56/15/35
f 33/3/36 34/2/36 42/2/36 41/3/36
f 34/17/37 40/15/37 48/15/37 42/17/37
f 39/13/38 38/11/38 46/11/38 47/13/38
f 37/9/39 36/7/39 44/7/39 45/9/39
f 35/5/40 33/3/40 41/3/40 43/5/40
f 40/15/41 39/13/41 47/13/41 48/15/41
f 38/11/42 37/9/42 45/9/42 46/11/42
f 53/9/43 52/7/43 60/7/43 61/9/43
f 46/11/44 45/9/44 53/9/44 54/11/44
f 44/7/45 43/5/45 51/5/45 52/7/45
f 41/3/46 42/2/46 50/2/46 49/3/46
f 42/17/47 48/15/47 56/15/47 50/17/47
f 47/13/48 46/11/48 54/11/48 55/13/48
f 45/9/49 44/7/49 52/7/49 53/9/49
f 43/5/50 41/3/50 49/3/50 51/5/50
f 58/17/51 64/15/51 72/15/51 66/17/51
f 51/5/52 49/3/52 97/3/52 98/5/52
f 56/15/53 55/13/53 63/13/53 64/15/53
f 54/11/54 53/9/54 61/9/54 62/11/54
f 102/7/55 99/7/55 105/7/55 108/7/55
f 49/3/56 50/2/56 58/2/56 57/3/56
f 50/17/57 56/15/57 64/15/57 58/17/57
f 55/13/58 54/11/58 62/11/58 63/13/58
f 70/11/59 69/9/59 77/9/59 78/11/59
f 63/13/60 62/11/60 70/11/60 71/13/60
f 61/9/61 60/7/61 68/7/61 69/9/61
f 59/5/62 57/3/62 65/3/62 67/5/62
f 64/15/63 63/13/63 71/13/63 72/15/63
f 62/11/64 61/9/64 69/9/64 70/11/64
f 60/7/65 59/5/65 67/5/65 68/7/65
f 57/3/66 58/2/66 66/2/66 65/3/66
f 80/15/67 79/13/67 87/13/67 88/15/67
f 68/7/68 67/5/68 75/5/68 76/7/68
f 65/3/69 66/2/69 74/2/69 73/3/69
f 66/17/70 72/15/70 80/15/70 74/17/70
f 71/13/71 70/11/71 78/11/71 79/13/71
f 69/9/72 68/7/72 76/7/72 77/9/72
f 67/5/73 65/3/73 73/3/73 75/5/73
f 72/15/74 71/13/74 79/13/74 80/15/74
f 87/13/75 86/11/75 94/11/75 95/13/75
f 78/11/76 77/9/76 85/9/76 86/11/76
f 76/7/77 75/5/77 83/5/77 84/7/77
f 73/3/78 74/2/78 82/2/78 81/3/78
f 74/17/79 80/15/79 88/15/79 82/17/79
f 79/13/80 78/11/80 86/11/80 87/13/80
f 77/9/81 76/7/81 84/7/81 85/9/81
f 75/5/82 73/3/82 81/3/82 83/5/82
f 91/5/83 89/3/83 163/3/83 165/5/83
f 85/9/84 84/7/84 92/7/84 93/9/84
f 83/5/85 81/3/85 89/3/85 91/5/85
f 88/15/86 87/13/86 95/13/86 96/15/86
f 86/11/87 85/9/87 93/9/87 94/11/87
f 84/7/88 83/5/88 91/5/88 92/7/88
f 81/3/89 82/2/89 90/2/89 89/3/89
f 82/17/90 88/15/90 96/15/90 90/17/90
f 57/3/91 59/5/91 100/5/91 101/3/91
f 49/3/92 57/3/92 101/3/92 97/3/92
f 60/7/93 52/7/93 99/7/93 102/7/93
f 52/7/94 51/5/94 98/5/94 99/7/94
f 59/5/95 60/7/95 102/7/95 100/5/95
f 104/3/96 107/3/96 113/3/96 110/3/96
f 101/3/97 100/5/97 106/5/97 107/3/97
f 98/5/98 97/3/98 104/3/98 103/5/98
f 97/3/99 101/3/99 107/3/99 104/3/99
f 100/5/100 102/7/100 108/7/100 106/5/100
f 99/7/101 98/5/101 103/5/101 105/7/101
f 114/7/102 111/7/102 117/7/102 120/7/102
f 106/5/103 108/7/103 114/7/103 112/5/103
f 105/7/104 103/5/104 109/5/104 111/7/104
f 108/7/105 105/7/105 111/7/105 114/7/105
f 107/3/106 106/5/106 112/5/106 113/3/106
f 103/5/107 104/3/107 110/3/107 109/5/107
f 116/3/108 119/3/108 125/3/108 122/3/108
f 113/3/109 112/5/109 118/5/109 119/3/109
f 109/5/110 110/3/110 116/3/110 115/5/110
f 110/3/111 113/3/111 119/3/111 116/3/111
f 112/5/112 114/7/112 120/7/112 118/5/112
f 111/7/113 109/5/113 115/5/113 117/7/113
f 126/7/114 123/7/114 129/7/114 132/7/114
f 118/5/115 120/7/115 126/7/115 124/5/115
f 117/7/116 115/5/116 121/5/116 123/7/116
f 120/7/117 117/7/117 123/7/117 126/7/117
f 119/3/118 118/5/118 124/5/118 125/3/118
f 115/5/119 116/3/119 122/3/119 121/5/119
f 130/5/120 132/7/120 138/7/120 136/5/120
f 125/3/121 124/5/121 130/5/121 131/3/121
f 121/5/122 122/3/122 128/3/122 127/5/122
f 122/3/123 125/3/123 131/3/123 128/3/123
f 124/5/124 126/7/124 132/7/124 130/5/124
f 123/7/125 121/5/125 127/5/125 129/7/125
f 137/3/126 136/5/126 142/5/126 143/3/126
f 129/7/127 127/5/127 133/5/127 135/7/127
f 132/7/128 129/7/128 135/7/128 138/7/128
f 131/3/129 130/5/129 136/5/129 137/3/129
f 127/5/130 128/3/130 134/3/130 133/5/130
f 128/3/131 131/3/131 137/3/131 134/3/131
f 141/7/132 139/5/132 145/5/132 147/7/132
f 133/5/133 134/3/133 140/3/133 139/5/133
f 134/3/134 137/3/134 143/3/134 140/3/134
f 136/5/135 138/7/135 144/7/135 142/5/135
f 135/7/136 133/5/136 139/5/136 141/7/136
f 138/7/137 135/7/137 141/7/137 144/7/137
f 145/5/138 146/3/138 152/3/138 151/5/138
f 144/7/139 141/7/139 147/7/139 150/7/139
f 143/3/140 142/5/140 148/5/140 149/3/140
f 139/5/141 140/3/141 146/3/141 145/5/141
f 140/3/142 143/3/142 149/3/142 146/3/142
f 142/5/143 144/7/143 150/7/143 148/5/143
f 156/7/144 153/7/144 159/7/144 162/7/144
f 146/3/145 149/3/145 155/3/145 152/3/145
f 148/5/146 150/7/146 156/7/146 154/5/146
f 147/7/147 145/5/147 151/5/147 153/7/147
f 150/7/148 147/7/148 153/7/148 156/7/148
f 149/3/149 148/5/149 154/5/149 155/3/149
f 158/3/150 161/3/150 160/5/150 162/7/150 159/7/150 157/5/150
f 155/3/151 154/5/151 160/5/151 161/3/151
f 151/5/152 152/3/152 158/3/152 157/5/152
f 152/3/153 155/3/153 161/3/153 158/3/153
f 154/5/154 156/7/154 162/7/154 160/5/154
f 153/7/155 151/5/155 157/5/155 159/7/155
f 170/15/156 169/13/156 177/13/156 178/15/156
f 96/15/157 95/13/157 169/13/157 170/15/157
f 94/11/158 93/9/158 167/9/158 168/11/158
f 92/7/159 91/5/159 165/5/159 166/7/159
f 89/3/160 90/2/160 164/2/160 163/3/160
f 90/17/161 96/15/161 170/15/161 164/17/161
f 95/13/162 94/11/162 168/11/162 169/13/162
f 93/9/163 92/7/163 166/7/163 167/9/163
f 175/9/164 174/7/164 182/7/164 183/9/164
f 168/11/165 167/9/165 175/9/165 176/11/165
f 166/7/166 165/5/166 173/5/166 174/7/166
f 163/3/167 164/2/167 172/2/167 171/3/167
f 164/17/168 170/15/168 178/15/168 172/17/168
f 169/13/169 168/11/169 176/11/169 177/13/169
f 167/9/170 166/7/170 174/7/170 175/9/170
f 165/5/171 163/3/171 171/3/171 173/5/171
f 180/17/172 186/15/172 194/15/172 188/17/172
f 173/5/173 171/3/173 179/3/173 181/5/173
f 178/15/174 177/13/174 185/13/174 186/15/174
f 176/11/175 175/9/175 183/9/175 184/11/175
f 174/7/176 173/5/176 181/5/176 182/7/176
f 171/3/177 172/2/177 180/2/177 179/3/177
f 172/17/178 178/15/178 186/15/178 180/17/178
f 177/13/179 176/11/179 184/11/179 185/13/179
f 192/11/180 191/9/180 199/9/180 200/11/180
f 185/13/181 184/11/181 192/11/181 193/13/181
f 183/9/182 182/7/182 190/7/182 191/9/182
f 181/5/183 179/3/183 187/3/183 189/5/183
f 186/15/184 185/13/184 193/13/184 194/15/184
f 184/11/185 183/9/185 191/9/185 192/11/185
f 182/7/186 181/5/186 189/5/186 190/7/186
f 179/3/187 180/2/187 188/2/187 187/3/187
f 195/27/188 196/28/188 202/29/188 201/30/188 200/31/188 199/32/188 198/33/188 197/34/188
f 190/7/189 189/5/189 197/5/189 198/7/189
f 187/3/190 188/2/190 196/2/190 195/3/190
f 188/17/191 194/15/191 202/15/191 196/17/191
f 193/13/192 192/11/192 200/11/192 201/13/192
f 191/9/193 190/7/193 198/7/193 199/9/193
f 189/5/194 187/3/194 195/3/194 197/5/194
f 194/15/195 193/13/195 201/13/195 202/15/195
