# Blender 4.5.4 LTS
# www.blender.org
o Branch
v -0.050000 -4.000000 -0.000000
v 0.050000 -4.000000 -0.000000
v -0.050000 -3.600000 0.000000
v 0.050000 -3.600000 0.000000
v -0.050000 -3.200000 0.000000
v 0.050000 -3.200000 0.000000
v -0.050000 -2.800000 0.000000
v 0.050000 -2.800000 0.000000
v -0.050000 -2.400001 0.000000
v 0.050000 -2.400001 0.000000
v -0.050000 -2.000000 0.000000
v 0.050000 -2.000000 0.000000
v -0.050000 -1.600000 0.000000
v 0.050000 -1.600000 0.000000
v -0.050000 -1.200000 0.000000
v 0.050000 -1.200000 0.000000
v -0.050000 -0.800000 0.000000
v 0.050000 -0.800000 0.000000
v -0.050000 -0.400000 0.000000
v 0.050000 -0.400000 0.000000
v -0.050000 0.000000 0.000000
v 0.050000 0.000000 0.000000
vn -0.0000 -0.0000 1.0000
vt 0.000000 0.000000
vt 1.000000 0.000000
vt 1.000000 1.000000
vt 0.000000 1.000000
s 0
f 1/1/1 2/2/1 4/3/1 3/4/1
f 3/4/1 4/3/1 6/3/1 5/4/1
f 5/4/1 6/3/1 8/3/1 7/4/1
f 7/4/1 8/3/1 10/3/1 9/4/1
f 9/4/1 10/3/1 12/3/1 11/4/1
f 11/4/1 12/3/1 14/3/1 13/4/1
f 13/4/1 14/3/1 16/3/1 15/4/1
f 15/4/1 16/3/1 18/3/1 17/4/1
f 17/4/1 18/3/1 20/3/1 19/4/1
f 19/4/1 20/3/1 22/3/1 21/4/1
