# Blender 4.5.4 LTS
# www.blender.org
o LeafBranch
v -0.025000 -4.000000 0.025000
v 0.025000 -4.000000 0.025000
v -0.025000 -3.600000 0.025000
v 0.025000 -3.600000 0.025000
v -0.025000 -3.200000 0.025000
v 0.025000 -3.200000 0.025000
v -0.025000 -2.800000 0.025000
v 0.025000 -2.800000 0.025000
v -0.025000 -2.400001 0.025000
v 0.025000 -2.400001 0.025000
v -0.025000 -2.000000 0.025000
v 0.025000 -2.000000 0.025000
v -0.025000 -1.600000 0.025000
v 0.025000 -1.600000 0.025000
v -0.025000 -1.200000 0.025000
v 0.025000 -1.200000 0.025000
v -0.025000 -0.800000 0.025000
v 0.025000 -0.800000 0.025000
v -0.025000 -0.400000 0.025000
v 0.025000 -0.400000 0.025000
v -0.025000 0.000000 0.025000
v 0.025000 0.000000 0.025000
v -0.025000 -4.000000 -0.025000
v 0.025000 -4.000000 -0.025000
v -0.025000 -3.600000 -0.025000
v 0.025000 -3.600000 -0.025000
v -0.025000 -3.200000 -0.025000
v 0.025000 -3.200000 -0.025000
v -0.025000 -2.800000 -0.025000
v 0.025000 -2.800000 -0.025000
v -0.025000 -2.400001 -0.025000
v 0.025000 -2.400001 -0.025000
v -0.025000 -2.000000 -0.025000
v 0.025000 -2.000000 -0.025000
v -0.025000 -1.600000 -0.025000
v 0.025000 -1.600000 -0.025000
v -0.025000 -1.200000 -0.025000
v 0.025000 -1.200000 -0.025000
v -0.025000 -0.800000 -0.025000
v 0.025000 -0.800000 -0.025000
v -0.025000 -0.400000 -0.025000
v 0.025000 -0.400000 -0.025000
v -0.025000 0.000000 -0.025000
v 0.025000 0.000000 -0.025000
vn -0.0000 -0.0000 -1.0000
vn -0.0000 -0.0000 1.0000
vn 1.0000 -0.0000 -0.0000
vn -1.0000 -0.0000 -0.0000
vn -0.0000 -1.0000 -0.0000
vn -0.0000 1.0000 -0.0000
vt 0.000000 0.000000
vt 0.000000 1.000000
vt 1.000000 1.000000
vt 1.000000 0.000000
s 0
f 1/1/1 3/2/1 4/3/1 2/4/1
f 3/2/1 5/2/1 6/3/1 4/3/1
f 5/2/1 7/2/1 8/3/1 6/3/1
f 7/2/1 9/2/1 10/3/1 8/3/1
f 9/2/1 11/2/1 12/3/1 10/3/1
f 11/2/1 13/2/1 14/3/1 12/3/1
f 13/2/1 15/2/1 16/3/1 14/3/1
f 15/2/1 17/2/1 18/3/1 16/3/1
f 17/2/1 19/2/1 20/3/1 18/3/1
f 19/2/1 21/2/1 22/3/1 20/3/1
f 23/1/2 24/4/2 26/3/2 25/2/2
f 25/2/2 26/3/2 28/3/2 27/2/2
f 27/2/2 28/3/2 30/3/2 29/2/2
f 29/2/2 30/3/2 32/3/2 31/2/2
f 31/2/2 32/3/2 34/3/2 33/2/2
f 33/2/2 34/3/2 36/3/2 35/2/2
f 35/2/2 36/3/2 38/3/2 37/2/2
f 37/2/2 38/3/2 40/3/2 39/2/2
f 39/2/2 40/3/2 42/3/2 41/2/2
f 41/2/2 42/3/2 44/3/2 43/2/2
f 19/2/3 17/2/3 39/2/3 41/2/3
f 8/3/4 10/3/4 32/3/4 30/3/4
f 18/3/4 20/3/4 42/3/4 40/3/4
f 5/2/3 3/2/3 25/2/3 27/2/3
f 15/2/3 13/2/3 35/2/3 37/2/3
f 22/3/5 21/2/5 43/2/5 44/3/5
f 4/3/4 6/3/4 28/3/4 26/3/4
f 14/3/4 16/3/4 38/3/4 36/3/4
f 11/2/3 9/2/3 31/2/3 33/2/3
f 21/2/3 19/2/3 41/2/3 43/2/3
f 3/2/3 1/1/3 23/1/3 25/2/3
f 10/3/4 12/3/4 34/3/4 32/3/4
f 20/3/4 22/3/4 44/3/4 42/3/4
f 7/2/3 5/2/3 27/2/3 29/2/3
f 17/2/3 15/2/3 37/2/3 39/2/3
f 1/1/6 2/4/6 24/4/6 23/1/6
f 6/3/4 8/3/4 30/3/4 28/3/4
f 16/3/4 18/3/4 40/3/4 38/3/4
f 2/4/4 4/3/4 26/3/4 24/4/4
f 13/2/3 11/2/3 33/2/3 35/2/3
f 12/3/4 14/3/4 36/3/4 34/3/4
f 9/2/3 7/2/3 29/2/3 31/2/3
