# Blender 4.5.4 LTS
# www.blender.org
o Leaf
v 0.000000 0.000000 -0.000000
v -0.100000 -0.200000 0.000062
v 0.100000 -0.200000 0.000062
v -0.000000 -1.000000 -0.039178
v -0.000000 -0.200000 0.060826
vn -0.0000 -0.2910 -0.9567
vn 0.5186 -0.0526 -0.8534
vn -0.5186 -0.0526 -0.8534
vn -0.0000 0.1240 -0.9923
vn -0.0000 -0.0800 -0.9968
vt 1.000000 1.000000
vt 1.000000 0.000000
vt 0.000000 0.000000
vt 0.000000 1.000000
s 1
f 4/1/4 2/2/2 5/3/5
f 1/3/1 3/4/3 5/3/5
f 2/2/2 1/3/1 5/3/5
f 3/4/3 4/1/4 5/3/5
